<?xml version="1.0" encoding="UTF-8"?>
<svg width="63px" height="57px" viewBox="0 0 63 57" version="1.1" xmlns="http://www.w3.org/2000/svg" xmlns:xlink="http://www.w3.org/1999/xlink">
    <title>合併形狀</title>
    <g id="網頁" stroke="none" stroke-width="1" fill="none" fill-rule="evenodd">
        <g id="登入_最新公告縮回" transform="translate(-332.000000, -280.000000)" fill="#0C6EB8">
            <path d="M382,280 C389.179702,280 395,285.820298 395,293 C395,297.43603 392.778116,301.353111 389.386519,303.699073 C389.788537,305.568542 390,307.509576 390,309.5 C390,324.687831 377.687831,337 362.5,337 C347.312169,337 335,324.687831 335,309.5 C335,307.018598 335.328653,304.613957 335.944804,302.327231 C333.511865,299.965354 332,296.659235 332,293 C332,285.820298 337.820298,280 345,280 C348.383749,280 351.46555,281.292792 353.778425,283.411398 C356.519123,282.495994 359.451639,282 362.5,282 C366.094073,282 369.52711,282.689472 372.674063,283.943366 C375.035554,281.511449 378.341268,280 382,280 Z" id="合併形狀"></path>
        </g>
    </g>
</svg>