<?xml version="1.0" encoding="UTF-8"?>
<svg width="212px" height="47px" viewBox="0 0 212 47" version="1.1" xmlns="http://www.w3.org/2000/svg" xmlns:xlink="http://www.w3.org/1999/xlink">
    <title>logo-benesse</title>
    <g id="組件" stroke="none" stroke-width="1" fill="none" fill-rule="evenodd">
        <g id="footer" transform="translate(-121.000000, -25.000000)">
            <g id="logo-benesse" transform="translate(121.000000, 25.000000)">
                <path d="M3.05,0 L3.05,1.94 C3.05,1.94 7.49,8.04 14.69,9.42 C14.69,9.42 10.63,13.21 0.56,11.64 L3.55271368e-15,13.58 C3.55271368e-15,13.58 10.63,17.64 19.13,13.3 L16.08,26.6 C16.08,26.6 13.68,29.84 12.2,31.04 C10.72,32.239 8.32,34.55 7.49,35.749 C6.66,36.95 5.92,37.499 4.72,37.97 C3.52,38.43 0.93,38.98 3.55271368e-15,39.63 C3.55271368e-15,39.63 4.16,42.4 7.21,44.06 L18.3,30.76 L20.24,24.659 C20.24,24.659 21.99,26.51 21.9,29.38 C21.81,32.239 21.9,34.09 21.9,34.09 C21.9,34.09 22.18,35.749 23.01,36.579 C23.84,37.409 31.04,45.45 31.04,45.45 L34.92,41.849 C34.92,41.849 31.97,41.379 28.83,38.239 C26.93,36.349 26.24,35.559 26.06,35.2 C25.87,34.829 25.41,33.899 25.5,32.7 C25.59,31.499 25.32,28.909 24.67,26.88 C24.02,24.85 23.1,23.19 21.34,21.06 C21.34,21.06 24.85,12.47 25.22,9.98 C25.22,9.98 23.75,9.7 21.34,8.04 C18.94,6.37 16.17,4.9 14.42,4.71 C12.66,4.53 9.61,3.88 7.49,2.49 C5.361,1.11 4.351,0.37 3.05,0 Z M24.121,5.54 C24.491,6.6 24.811,6.65 25.321,6.65 C26.291,6.65 26.331,6.05 26.891,4.99 C27.441,3.93 27.161,3.32 26.891,3.05 C26.611,2.77 26.011,2.63 25.221,3.05 C24.441,3.46 23.751,4.48 24.121,5.54 Z" id="形狀" fill="#1344BC"></path>
                <path d="M36.311,13.86 C36.311,14.62 36.931,15.24 37.701,15.24 C38.461,15.24 39.081,14.62 39.081,13.86 C39.081,13.09 38.461,12.47 37.701,12.47 C36.931,12.47 36.311,13.09 36.311,13.86 Z M33.82,27.16 L35.48,26.881 L41.58,46 L46.29,44.341 L39.08,30.211 L37.97,19.951 C39.57,20.441 40.95,21.341 43.79,24.391 C46.63,27.441 47.26,31.452 47.4,31.321 C47.53,31.181 48.78,29.032 47.4,24.941 C46.01,20.851 42.61,19.261 40.19,18.011 C37.76,16.771 35.55,16.901 33.54,16.901 C31.53,16.901 30.91,17.741 30.21,18.571 C29.52,19.401 26.26,23.211 25.5,25.221 C24.74,27.231 23.56,31.591 23.56,31.591 C25.22,33.121 25.78,32.981 25.78,32.981 C27.65,27.92 28.83,26.881 28.83,26.881 C29.87,20.511 30.49,20.511 30.49,20.511 C30.49,26.051 31.88,27.16 31.88,27.16 C32.22,29.58 31.11,31.041 29.94,32.15 C28.76,33.26 28.2,33.951 27.72,34.92 C27.23,35.891 25.92,37.9 25.5,39.91 C25.09,41.92 24.39,46.281 24.39,46.281 C24.39,46.281 27.27,44.041 28,43.371 C28.83,42.611 28.76,39.841 28.83,38.801 C28.9,37.761 29.31,36.862 29.94,36.301 C30.56,35.75 30.98,35.131 32.71,32.42 C34.441,29.72 33.82,27.16 33.82,27.16 Z" id="形狀" fill="#F3A201"></path>
                <path d="M51.55,29.38 C52.89,30.9 53.45,29.419 53.22,28.54 C52.98,27.669 52.15,27.669 51.55,27.989 C50.951,28.31 51.55,29.38 51.55,29.38 Z M51.001,31.87 C49.291,30.159 48.601,29.7 47.401,29.649 C46.191,29.61 44.391,30.809 44.071,32.149 C43.751,33.489 44.071,34.639 44.071,34.639 C45.551,32.289 46.151,32.239 47.631,32.099 C49.351,31.939 51.001,32.979 51.001,32.979 C51.511,35.749 52.381,37.139 52.381,37.139 C52.381,37.139 53.081,37.339 52.941,37.689 C52.801,38.04 49.131,39.489 48.231,39.909 C47.331,40.319 43.521,40.18 43.521,40.18 L43.241,42.4 C43.241,42.4 47.881,41.781 49.341,41.57 C50.791,41.361 52.451,40.25 53.491,39.91 C54.531,39.56 56.891,39.49 59.591,39.35 C62.291,39.21 63.881,40.6 64.581,40.74 C65.271,40.881 67.071,40.74 67.071,40.74 L66.791,38.52 C66.791,38.52 65.201,38.871 64.581,38.8 C63.951,38.73 53.491,37.14 53.491,37.14 L54.051,31.59 L51.001,31.87 Z M54.601,31.32 L54.601,31.871 C54.601,31.871 56.311,32.15 58.481,31.871 C60.651,31.591 62.271,30.211 62.921,29.65 C63.561,29.1 64.531,28.13 65.131,27.44 C65.731,26.74 65.961,24.39 65.961,24.39 L62.921,24.66 C62.681,27.02 62.181,26.931 60.421,27.711 C58.671,28.499 54.601,31.32 54.601,31.32 Z" id="形狀" fill="#DB0E12"></path>
                <path d="M75.391,14.69 C74.461,15.15 74.921,16.07 76.491,16.07 C78.071,16.07 78.071,16.9 78.431,19.68 C78.801,22.45 78.621,32.89 78.431,34.919 C78.251,36.95 76.771,37.409 75.111,37.97 C73.451,38.52 75.201,39.079 76.221,39.079 L86.471,39.079 C87.861,39.079 89.431,38.89 91.181,38.519 C92.941,38.149 97.931,37.599 98.111,31.589 C98.301,25.589 90.631,25.219 90.631,25.219 C93.031,24.389 96.171,21.889 96.451,19.119 C96.731,16.349 93.581,15.059 90.631,14.689 C87.671,14.32 75.391,14.69 75.391,14.69 Z M83.151,16.9 C83.151,15.7 84.811,15.24 86.751,15.52 C88.691,15.8 91.461,16.72 91.181,19.95 C90.911,23.19 88.601,24.2 87.031,24.659 C85.461,25.13 86.101,26.05 87.031,26.05 C87.951,26.05 93.681,26.88 93.121,32.15 C92.571,37.41 89.611,37.781 87.301,37.97 C84.991,38.15 82.961,36.95 83.151,34.919 C83.331,32.89 83.151,18.57 83.151,16.9 Z M116.68,36.579 C108.641,40.37 105.59,32.05 105.59,29.38 C105.59,26.7 105.69,21.52 109.47,21.62 C113.259,21.71 113.079,27.71 113.079,27.71 C113.079,27.71 110.399,27.899 108.919,27.989 C107.439,28.079 107.72,29.38 108.919,29.38 L117.79,29.38 C117.97,18.47 105.96,19.12 103.1,24.11 C100.42,28.78 101.25,31.78 102.55,34.639 C103.84,37.498 107.81,39.349 111.97,39.349 C116.13,39.349 116.68,36.579 116.68,36.579 Z M157.141,36.579 C149.1,40.37 146.061,32.05 146.061,29.38 C146.061,26.7 146.151,21.52 149.94,21.62 C153.721,21.71 153.542,27.71 153.542,27.71 C153.542,27.71 150.86,27.899 149.382,27.989 C147.902,28.079 148.181,29.38 149.382,29.38 L158.251,29.38 C158.431,18.47 146.431,19.12 143.562,24.11 C140.882,28.78 141.712,31.78 143.011,34.639 C144.302,37.498 148.271,39.349 152.431,39.349 C156.591,39.349 157.141,36.579 157.141,36.579 Z M210.35,36.579 C202.311,40.37 199.27,32.05 199.27,29.38 C199.27,26.7 199.36,21.52 203.151,21.62 C206.93,21.71 206.751,27.71 206.751,27.71 C206.751,27.71 204.071,27.899 202.591,27.989 C201.111,28.079 201.392,29.38 202.591,29.38 L211.462,29.38 C211.651,18.47 199.642,19.12 196.771,24.11 C194.091,28.78 194.921,31.78 196.222,34.639 C197.511,37.498 201.482,39.349 205.642,39.349 C209.802,39.349 210.35,36.579 210.35,36.579 Z M130.26,23.28 C133.03,23.56 133.311,25.31 133.311,26.88 L133.311,39.079 L139.131,39.079 C140.24,39.079 140.24,38.34 139.131,37.97 C138.02,37.6 137.461,36.21 137.461,35.2 L137.461,26.329 C137.461,22.539 134.6,21.149 133.029,20.78 C131.461,20.41 126.381,23 126.381,23 C127.401,20.51 125.83,20.97 125.27,21.34 C124.721,21.71 121.67,21.89 120.28,22.17 C118.901,22.45 119.641,23.28 120.28,23.28 C120.93,23.28 122.501,23.739 122.501,24.94 L122.501,35.201 C122.501,36.77 121.761,37.23 120.841,37.69 C119.911,38.15 120.101,38.8 120.841,38.8 L127.761,38.8 C129.241,38.8 128.411,37.97 127.761,37.97 C127.122,37.97 126.562,36.95 126.382,35.749 C126.191,34.55 126.101,31.96 126.101,27.439 C126.1,22.91 130.26,23.28 130.26,23.28 Z M161.371,35.579 C161.371,36.499 161.301,39.01 161.301,39.01 C161.301,39.01 162.68,38.71 163.52,38.8 C164.35,38.89 166.01,39.079 168.5,39.079 C171,39.079 175.43,37.689 175.43,33.809 C175.43,29.929 172.66,28.909 169.61,27.989 C166.561,27.069 164.991,26.329 165.18,24.11 C165.36,21.889 167.121,21.519 169.061,21.619 C171,21.709 171.92,23.369 172.381,24.11 C172.85,24.849 173.58,25.87 173.77,24.389 C173.952,22.909 174.42,21.249 172.94,21.059 C171.461,20.879 165.731,19.579 163.241,22.719 C160.741,25.869 160.651,29.189 166.292,31.039 C171.921,32.889 172.751,35.379 170.722,37.139 C168.691,38.889 164.251,38.149 163.521,36.578 C162.781,35.009 162.591,33.808 161.851,33.808 C161.111,33.808 161.371,34.71 161.371,35.579 Z M178,35.579 C178,36.499 177.93,39.01 177.93,39.01 C177.93,39.01 179.311,38.71 180.141,38.8 C180.981,38.89 182.641,39.079 185.131,39.079 C187.631,39.079 192.061,37.689 192.061,33.809 C192.061,29.929 189.291,28.909 186.241,27.989 C183.191,27.069 181.622,26.329 181.811,24.11 C181.991,21.889 183.75,21.519 185.69,21.619 C187.631,21.709 188.551,23.369 189.01,24.11 C189.471,24.849 190.211,25.87 190.401,24.389 C190.581,22.909 191.042,21.249 189.571,21.059 C188.091,20.879 182.36,19.579 179.872,22.719 C177.372,25.869 177.28,29.189 182.921,31.039 C188.552,32.889 189.382,35.379 187.351,37.139 C185.322,38.889 180.882,38.149 180.142,36.578 C179.402,35.009 179.222,33.808 178.482,33.808 C177.742,33.808 178,34.71 178,35.579 Z" id="形狀" fill="#000000" fill-rule="nonzero"></path>
            </g>
        </g>
    </g>
</svg>